<?xml version="1.0" encoding="UTF-8" standalone="no"?>
<!DOCTYPE svg PUBLIC "-//W3C//DTD SVG 1.1//EN" "http://www.w3.org/Graphics/SVG/1.1/DTD/svg11.dtd">
<svg width="100%" height="100%" viewBox="0 0 275 275" version="1.1" xmlns="http://www.w3.org/2000/svg" xmlns:xlink="http://www.w3.org/1999/xlink" xml:space="preserve" style="fill-rule:evenodd;clip-rule:evenodd;stroke-linejoin:round;stroke-miterlimit:1.41421;">
    <g transform="matrix(5.7805,0,0,5.7805,-1830.62,-3201.64)">
        <path d="M328.057,598.784L338.804,598.784C339.795,598.784 340.614,597.969 340.614,596.973L340.614,576.472C340.614,571.458 336.167,568.941 336.167,566.023L336.167,556.529L330.694,556.529L330.694,565.852C330.694,569.089 326.247,571.45 326.247,576.472L326.247,596.973C326.247,597.965 327.066,598.784 328.057,598.784ZM344.372,598.784L353.213,598.784C354.029,598.784 354.703,598.113 354.703,597.294L354.703,580.428C354.703,576.303 351.044,574.232 351.044,571.832L351.044,564.02L346.542,564.02L346.542,571.691C346.542,574.354 342.883,576.295 342.883,580.428L342.883,597.294C342.883,598.11 343.557,598.784 344.372,598.784ZM353.805,590.515L343.78,590.515L343.78,584.377L353.805,584.377L353.805,590.515ZM339.523,588.734L327.338,588.734L327.338,581.274L339.523,581.274L339.523,588.734Z" style="fill:rgb(43,80,62);"/>
    </g>
</svg>
