<?xml version="1.0" encoding="UTF-8" standalone="no"?>
<!DOCTYPE svg PUBLIC "-//W3C//DTD SVG 1.1//EN" "http://www.w3.org/Graphics/SVG/1.1/DTD/svg11.dtd">
<svg width="100%" height="100%" viewBox="0 0 275 275" version="1.1" xmlns="http://www.w3.org/2000/svg" xmlns:xlink="http://www.w3.org/1999/xlink" xml:space="preserve" style="fill-rule:evenodd;clip-rule:evenodd;stroke-linejoin:round;stroke-miterlimit:1.41421;">
    <g>
        <g transform="matrix(1,0,0,1,-39.176,1.42109e-14)">
            <g>
                <g>
                    <g transform="matrix(1,0,0,1,0,-362.501)">
                        <path d="M261.001,546.313L264.169,549.652L265,548.827L265,423.698C265,417.26 259.781,412.041 253.343,412.041L243.101,412.041L243.101,534.275C249.829,536.937 255.973,541.014 261.001,546.313Z" style="fill:rgb(37,104,148);fill-rule:nonzero;"/>
                    </g>
                    <g transform="matrix(1,0,0,1,0,-362.501)">
                        <path d="M179.448,600.94L110.251,600.94L110.251,412.041L100.008,412.041C93.571,412.041 88.352,417.26 88.352,423.698L88.352,607.643C88.352,614.081 93.571,619.299 100.008,619.299L194.889,619.299C188.335,614.534 183.001,608.234 179.448,600.94Z" style="fill:rgb(37,104,148);fill-rule:nonzero;"/>
                    </g>
                    <g transform="matrix(1,0,0,1,0,-362.501)">
                        <path d="M130.777,437.531L222.575,437.531C227.985,437.531 232.372,433.144 232.372,427.733L232.372,411.427C232.372,396.188 215.889,407.367 207.559,392.959C198.114,376.62 155.24,376.613 145.793,392.959C137.542,407.23 120.98,396.251 120.98,411.427L120.98,427.733C120.98,433.144 125.366,437.531 130.777,437.531ZM176.676,388.013C182.829,388.013 187.817,393 187.817,399.154C187.817,405.308 182.829,410.295 176.676,410.295C170.522,410.295 165.534,405.308 165.534,399.154C165.534,393 170.522,388.013 176.676,388.013Z" style="fill:rgb(37,104,148);fill-rule:nonzero;"/>
                    </g>
                    <g transform="matrix(1,0,0,1,0,-362.501)">
                        <rect x="157" y="453.624" width="66.5" height="11.142" style="fill:rgb(37,104,148);fill-rule:nonzero;"/>
                    </g>
                    <g transform="matrix(1,0,0,1,0,-362.501)">
                        <rect x="157" y="500.666" width="66.5" height="11.141" style="fill:rgb(37,104,148);fill-rule:nonzero;"/>
                    </g>
                    <g transform="matrix(1,0,0,1,0,-362.501)">
                        <rect x="157" y="477.145" width="66.5" height="11.141" style="fill:rgb(37,104,148);fill-rule:nonzero;"/>
                    </g>
                    <g transform="matrix(1,0,0,1,0,-362.501)">
                        <path d="M157,547.707L157,558.85L179.361,558.85C181.312,554.8 183.815,551.059 186.766,547.707L157,547.707Z" style="fill:rgb(37,104,148);fill-rule:nonzero;"/>
                    </g>
                    <g transform="matrix(1,0,0,1,0,-362.501)">
                        <path d="M223.5,524.187L157,524.187L157,535.329L203.377,535.329C209.511,532.498 216.322,530.868 223.5,530.728L223.5,524.187Z" style="fill:rgb(37,104,148);fill-rule:nonzero;"/>
                    </g>
                    <g transform="matrix(1,0,0,1,0,-362.501)">
                        <path d="M261.87,566.03L229.58,598.102C227.682,599.986 225.2,600.927 222.721,600.927C220.231,600.927 217.741,599.978 215.841,598.078L200.039,582.274C198.073,580.308 198.073,577.122 200.039,575.158L203.409,571.787C204.391,570.804 205.68,570.313 206.967,570.313C208.255,570.313 209.543,570.804 210.527,571.787L219.214,580.475C220.216,581.476 221.529,581.978 222.841,581.978C224.154,581.978 225.466,581.476 226.466,580.475L253.747,553.197C246.457,545.514 236.054,540.703 224.501,540.703C202.451,540.703 184.576,558.207 184.576,579.8C184.576,601.394 202.451,618.898 224.501,618.898C246.551,618.898 264.424,601.394 264.424,579.8C264.424,574.953 263.519,570.314 261.87,566.03Z" style="fill:rgb(37,104,148);fill-rule:nonzero;"/>
                    </g>
                </g>
            </g>
        </g>
        <g>
            <g transform="matrix(1,1.91748e-18,1.93261e-18,1,87.5769,43.1234)">
                <path d="M8.107,61.832L14.491,61.832L14.491,44.672L9.043,44.672L5.131,47.36L5.131,52.592L8.107,50.96L8.107,61.832Z" style="fill:rgb(37,104,148);fill-rule:nonzero;"/>
            </g>
            <g transform="matrix(1,1.91748e-18,1.93261e-18,1,87.5769,66.8944)">
                <path d="M2.419,61.832L17.395,61.832L17.395,57.152L12.931,57.152L14.131,56C15.955,54.248 17.251,52.64 17.251,50.144C17.251,46.856 14.899,44.408 10.195,44.408C5.587,44.408 2.707,46.616 2.587,51.392L8.323,51.392C8.491,49.712 8.995,49.16 9.835,49.16C10.675,49.16 10.987,49.736 10.987,50.48C10.987,51.776 9.763,53.192 7.987,55.088L2.419,61.016L2.419,61.832Z" style="fill:rgb(37,104,148);fill-rule:nonzero;"/>
            </g>
            <g transform="matrix(1,1.91748e-18,1.93261e-18,1,87.5769,90.6654)">
                <path d="M10.255,62.168C15.271,62.168 17.647,59.888 17.647,56.552C17.647,54.608 16.255,53.216 14.287,52.88C16.207,52.4 17.287,51.128 17.287,49.208C17.287,46.112 14.623,44.408 10.183,44.408C5.383,44.408 3.127,46.784 2.863,50.528L8.479,50.528C8.671,49.424 9.103,48.872 10.015,48.872C10.903,48.872 11.359,49.28 11.359,49.976C11.359,50.84 10.759,51.344 9.583,51.344L8.263,51.344L8.263,55.064L9.655,55.064C10.735,55.064 11.215,55.52 11.215,56.384C11.215,57.224 10.735,57.656 9.823,57.656C8.647,57.656 8.239,56.984 8.143,55.88L2.503,55.88C2.671,59.984 4.903,62.168 10.255,62.168Z" style="fill:rgb(37,104,148);fill-rule:nonzero;"/>
            </g>
            <g transform="matrix(1,-1.22589e-17,-1.16746e-17,1,87.5769,114.436)">
                <path d="M9.991,61.832L16.111,61.832L16.111,58.712L18.223,58.712L18.223,54.44L16.111,54.44L16.111,44.672L8.575,44.672L1.759,56.264L1.759,58.712L9.991,58.712L9.991,61.832ZM7.423,54.44L10.159,49.472L10.159,54.44L7.423,54.44Z" style="fill:rgb(37,104,148);fill-rule:nonzero;"/>
            </g>
            <g transform="matrix(1,1.91748e-18,1.93261e-18,1,87.5769,138.207)">
                <path d="M9.931,62.168C14.827,62.168 17.443,59.672 17.443,56C17.443,52.16 15.475,50.096 12.307,50.096C9.907,50.096 8.683,51.176 8.035,52.232L8.203,49.208L16.267,49.208L16.267,44.672L3.691,44.672L3.139,55.256L7.195,55.256C7.579,54.752 8.323,54.248 9.403,54.248C10.531,54.248 11.059,54.8 11.059,55.88C11.059,56.624 10.843,57.416 9.883,57.416C8.827,57.416 8.491,56.888 8.419,56.048L2.659,56.048C2.707,59.48 4.939,62.168 9.931,62.168Z" style="fill:rgb(37,104,148);fill-rule:nonzero;"/>
            </g>
        </g>
    </g>
</svg>
