<?xml version="1.0" encoding="UTF-8" standalone="no"?>
<!DOCTYPE svg PUBLIC "-//W3C//DTD SVG 1.1//EN" "http://www.w3.org/Graphics/SVG/1.1/DTD/svg11.dtd">
<svg width="100%" height="100%" viewBox="0 0 275 275" version="1.1" xmlns="http://www.w3.org/2000/svg" xmlns:xlink="http://www.w3.org/1999/xlink" xml:space="preserve" style="fill-rule:evenodd;clip-rule:evenodd;stroke-linejoin:round;stroke-miterlimit:1.41421;">
    <g transform="matrix(0.156442,0,0,0.156442,115.989,115.989)">
        <g transform="matrix(4.16667,0,0,4.16667,-10010.4,-9701.67)">
            <path d="M2399.42,2223.47C2408.98,2217.55 2416.63,2208.87 2423.14,2199.12C2423.49,2198.6 2423.86,2198.1 2424.57,2197.07C2431.73,2207.24 2438.78,2217.1 2450.04,2222.02C2460.92,2226.76 2472.35,2227.69 2484.19,2226.99C2484.32,2231.77 2483.53,2236.3 2482.17,2240.8C2476.06,2261.14 2456.98,2276.72 2436.83,2275.16C2415.98,2273.57 2399.16,2256.23 2395.18,2235.29C2394.2,2230.11 2394.39,2226.59 2399.42,2223.47ZM2439.22,2290.89C2472.04,2291.06 2498.47,2259 2499.31,2227.49C2500.24,2194.06 2473.11,2167.04 2441.01,2165.81C2407.02,2165.24 2379.29,2193.02 2379.4,2225.58C2379.48,2258.37 2405.8,2290.61 2439.22,2290.89Z" style="fill:rgb(71,48,75);fill-rule:nonzero;"/>
        </g>
        <g transform="matrix(4.16667,0,0,4.16667,-10010.4,-9701.67)">
            <path d="M2361.82,2388.07L2420.18,2388.08C2461.4,2388.08 2502.61,2388.09 2543.82,2388.11C2543.88,2387.68 2543.97,2387.06 2544.06,2386.27C2541.33,2381.94 2538.36,2378.12 2535.46,2374.89C2533.41,2375.35 2531.35,2375.59 2529.3,2375.59C2522.79,2375.59 2516.81,2373.18 2512.44,2368.82L2466.03,2322.4L2451.84,2364.73L2443.82,2314.41L2448.2,2307.13L2447.46,2299.84L2436.73,2299.84L2434.71,2299.84L2423.98,2299.84L2423.25,2307.13L2427.62,2314.41L2419.6,2364.73L2396.64,2296.19C2319.31,2316.81 2326.54,2380.84 2327.63,2388.1C2339.02,2388.1 2350.42,2388.07 2361.82,2388.07Z" style="fill:rgb(71,48,75);fill-rule:nonzero;"/>
        </g>
        <g transform="matrix(4.16667,0,0,4.16667,-10010.4,-9701.67)">
            <path d="M2513.96,2519.27L2497.11,2510.42L2480.27,2519.27L2483.49,2500.52L2469.86,2487.24L2488.69,2484.5L2497.11,2467.44L2505.53,2484.5L2524.36,2487.24L2510.73,2500.52L2513.96,2519.27ZM2452.35,2519.27L2435.51,2510.42L2418.66,2519.27L2421.88,2500.52L2408.26,2487.24L2427.09,2484.5L2435.51,2467.44L2443.93,2484.5L2462.76,2487.24L2449.13,2500.52L2452.35,2519.27ZM2390.74,2519.27L2373.9,2510.42L2357.06,2519.27L2360.28,2500.52L2346.65,2487.24L2365.48,2484.5L2373.9,2467.44L2382.32,2484.5L2401.15,2487.24L2387.52,2500.52L2390.74,2519.27ZM2609.79,2420.98C2608.94,2407.97 2599.72,2400.32 2586.54,2400.31C2583.1,2400.31 2579.67,2400.31 2576.24,2400.31C2570.77,2377.94 2557.56,2361.65 2546.53,2351.4C2549.13,2345.81 2548.75,2339.76 2545.02,2336.03L2496.14,2287.15C2490.98,2281.99 2481.39,2283.21 2474.72,2289.89C2468.04,2296.56 2466.81,2306.15 2471.98,2311.32L2520.85,2360.19C2525.06,2364.4 2532.21,2364.36 2538.32,2360.6C2547.46,2369.21 2558.34,2382.52 2563.55,2400.31C2515.69,2400.3 2467.83,2400.28 2419.97,2400.28C2374.44,2400.28 2328.91,2400.24 2283.38,2400.34C2270.44,2400.37 2261.48,2409.05 2261.01,2421.93C2260.71,2430.64 2260.78,2439.38 2260.94,2448.1C2261.21,2462.79 2269.42,2470.76 2284.23,2470.9C2292.16,2470.97 2300.1,2471.01 2308.03,2470.92C2310.82,2470.89 2312.16,2471.61 2312.72,2474.73C2314.98,2487.19 2317.62,2499.58 2320.1,2511.99C2323.1,2527 2326.08,2542.01 2329.03,2556.89C2339.71,2556.89 2350.24,2556.89 2360.78,2556.89L2360.78,2557L2534.01,2557C2539.48,2529.57 2544.98,2502.29 2550.27,2474.96C2550.9,2471.74 2552.12,2470.85 2555.24,2470.88C2566.82,2470.99 2578.41,2471.07 2589.98,2470.72C2600.39,2470.4 2608.64,2463.16 2609.46,2452.8C2610.29,2442.24 2610.48,2431.55 2609.79,2420.98Z" style="fill:rgb(71,48,75);fill-rule:nonzero;"/>
        </g>
    </g>
</svg>
