<?xml version="1.0" encoding="UTF-8" standalone="no"?>
<!DOCTYPE svg PUBLIC "-//W3C//DTD SVG 1.1//EN" "http://www.w3.org/Graphics/SVG/1.1/DTD/svg11.dtd">
<svg width="100%" height="100%" viewBox="0 0 275 275" version="1.1" xmlns="http://www.w3.org/2000/svg" xmlns:xlink="http://www.w3.org/1999/xlink" xml:space="preserve" style="fill-rule:evenodd;clip-rule:evenodd;stroke-linejoin:round;stroke-miterlimit:1.41421;">
    <g transform="matrix(0.265772,0,1.34867e-32,0.265772,-109.2,-122.112)">
        <path d="M613.542,589.132C651.895,576.043 693.593,596.518 706.688,634.87C719.774,673.216 699.298,714.916 660.945,728C622.604,741.088 580.911,720.614 567.822,682.264C554.731,643.923 575.208,602.218 613.542,589.132ZM559.558,710.667L553.451,754.455L596.027,742.528L612.625,783.509L643.524,751.896L678.389,779.089L689.348,736.255L733.136,742.369L721.209,699.795L762.189,683.202L730.577,652.293L757.772,617.429L714.945,606.467L721.053,562.684L678.479,574.604L661.895,533.623L630.974,565.236L596.114,538.047L585.148,580.877L541.369,574.76L553.294,617.337L512.315,633.935L543.926,664.844L516.726,699.703L559.558,710.667Z" style="fill:rgb(35,69,88);fill-rule:nonzero;"/>
        <path d="M688.98,1299.67C693.002,1299.67 696.796,1298.05 699.67,1295.12L709.011,1285.57C726.196,1267.99 749.12,1258.32 773.542,1258.32C797.969,1258.32 820.888,1267.99 838.085,1285.57L847.598,1295.3C850.461,1298.23 854.26,1299.84 858.291,1299.84C862.292,1299.84 866.065,1298.25 868.926,1295.36L878.953,1285.19C896.096,1267.82 918.911,1258.25 943.184,1258.25C967.71,1258.25 990.692,1267.99 1007.9,1285.68L1016.94,1294.98C1019.74,1297.85 1023.72,1299.57 1027.65,1299.57C1031.55,1299.57 1035.55,1297.86 1038.33,1295.03L1047.57,1285.57C1064.76,1268 1087.68,1258.32 1112.1,1258.32C1136.53,1258.32 1159.45,1268 1176.64,1285.57L1185.99,1295.12C1188.85,1298.06 1192.64,1299.68 1196.67,1299.68C1200.68,1299.68 1204.48,1298.06 1207.35,1295.12L1216.7,1285.57C1222.99,1279.13 1230.06,1273.78 1237.69,1269.55C1187.08,1224.11 1131.24,1189.84 1071.79,1169.03C1046.4,1060.62 1068.77,918.242 1103.66,810.506C1104.42,809.708 1105.16,808.897 1105.9,808.094C1143.49,817.2 1176.58,843.037 1193.45,881.12C1214.31,928.24 1204.65,981.128 1173.03,1017.68C1191.42,1018.13 1210.21,1014.62 1228.16,1006.67C1293.24,977.854 1322.62,901.742 1293.8,836.667C1271.92,787.257 1222.76,758.5 1171.86,760.109C1182.48,757.175 1193.63,755.244 1205.23,754.623C1259.85,751.712 1308.46,777.183 1332.47,816.428C1339.97,800.596 1343.72,783.146 1342.76,765.003C1339.25,699.195 1275.25,649.118 1199.81,653.139C1191.56,653.579 1183.56,654.744 1175.79,656.391C1175.95,646.82 1175.26,637.048 1173.36,627.167C1160.41,559.782 1102.28,514.313 1043.51,525.598C1027.29,528.712 1012.74,535.854 1000.41,545.916C1034.21,556.595 1063.09,585.094 1076.8,623.271C1066.09,614.509 1054.09,606.718 1040.88,600.3C964.49,563.176 877.516,584.606 846.621,648.175C838.099,665.708 834.767,684.628 835.96,703.599C877.056,675.306 937.893,671.466 993.217,698.342C1004.91,704.023 1015.62,710.803 1025.34,718.345C975.684,698.16 916.688,707.266 875.288,746.603C818.905,800.17 816.647,889.302 870.218,945.68C884.987,961.233 902.488,972.638 921.24,979.927C904.659,929.776 917.087,872.35 957.916,833.549C989.064,803.965 1030.18,791.479 1069.79,795.682C992.948,942.819 946.918,1057.46 939.231,1145.92C938.589,1145.92 937.959,1145.89 937.32,1145.89C900.205,1145.89 863.915,1151.07 828.763,1160.88C786.244,1121.79 752.815,1057.13 734.385,1002.4C734.458,1001.81 734.53,1001.23 734.58,1000.65C753.569,992.616 775.94,993.174 795.247,1004.13C819.133,1017.68 831.785,1043.39 829.854,1069.09C837.871,1063.43 844.813,1055.97 849.971,1046.86C868.677,1013.87 857.111,971.953 824.118,953.245C799.059,939.029 768.886,942.322 747.604,959.156C751.212,954.535 755.379,950.168 760.134,946.222C782.609,927.638 811.504,923.117 834.236,932.301C832.429,923.131 828.501,914.476 822.325,907.017C799.939,879.947 756.644,878.818 725.605,904.489C722.216,907.288 719.169,910.337 716.355,913.501C713.393,909.357 709.988,905.393 706.037,901.769C679.108,877.022 639.781,876.001 618.198,899.493C612.233,905.977 608.27,913.644 606.202,921.875C624.062,915.713 645.456,918.753 663.461,930.745C656.091,930.388 648.473,930.866 640.788,932.315C596.287,940.664 565.854,977.444 572.8,1014.48C574.716,1024.69 579.303,1033.84 585.824,1041.59C594.447,1016.43 619.274,995.467 651.499,989.419C658.319,988.141 665.041,987.649 671.607,987.785C643.932,994.908 621.553,1017.54 616.315,1047.52C609.182,1088.35 636.504,1127.24 677.342,1134.38C688.591,1136.34 699.711,1135.67 710.062,1132.84C687.042,1116.63 674.135,1088.1 679.302,1058.52C683.241,1035.97 696.883,1017.57 715.182,1006.79C727.574,1085.31 742.318,1144.66 763.151,1185.17C718.551,1205.87 676.324,1234.25 637.208,1269.33C652.543,1274.47 666.606,1283.16 678.32,1295.12C681.176,1298.06 684.97,1299.67 688.98,1299.67Z" style="fill:rgb(35,69,88);fill-rule:nonzero;"/>
        <path d="M557.475,1338.37C561.513,1338.37 565.553,1336.79 568.639,1333.64C578.512,1323.54 591.47,1318.5 604.434,1318.5C617.407,1318.5 630.367,1323.54 640.241,1333.64C653.69,1347.39 671.336,1354.26 688.994,1354.26C706.653,1354.26 724.313,1347.39 737.747,1333.64L747.089,1324.09C754.388,1316.63 763.974,1312.89 773.556,1312.89C783.14,1312.89 792.724,1316.63 800.018,1324.09L809.521,1333.82C822.955,1347.54 840.617,1354.41 858.297,1354.41C875.847,1354.41 893.421,1347.64 906.802,1334.06L916.853,1323.89C924.128,1316.51 933.657,1312.83 943.184,1312.83C952.81,1312.83 962.423,1316.58 969.722,1324.09L978.761,1333.38C991.78,1346.77 1009.11,1354.16 1027.56,1354.19C1027.59,1354.19 1027.62,1354.19 1027.65,1354.19C1046.07,1354.19 1063.38,1346.85 1076.41,1333.53L1085.64,1324.09C1092.94,1316.63 1102.52,1312.9 1112.1,1312.9C1121.69,1312.9 1131.27,1316.63 1138.57,1324.09L1147.91,1333.64C1161.35,1347.39 1179,1354.26 1196.65,1354.26C1214.31,1354.26 1231.97,1347.39 1245.41,1333.64L1254.76,1324.09C1262.06,1316.63 1271.64,1312.89 1281.23,1312.89C1290.8,1312.89 1300.38,1316.63 1307.68,1324.09C1310.77,1327.24 1314.81,1328.82 1318.83,1328.82C1322.9,1328.82 1326.96,1327.21 1330.04,1324.01C1336.2,1317.64 1336.18,1307.34 1329.98,1301C1316.53,1287.26 1298.88,1280.38 1281.23,1280.38C1263.57,1280.38 1245.91,1287.26 1232.47,1301L1223.13,1310.55C1215.83,1318.01 1206.25,1321.74 1196.67,1321.74C1187.08,1321.74 1177.5,1318.01 1170.2,1310.55L1160.86,1301C1147.42,1287.26 1129.77,1280.38 1112.1,1280.38C1094.45,1280.38 1076.78,1287.26 1063.35,1301L1054.11,1310.45C1047.15,1317.56 1037.52,1321.64 1027.65,1321.64C1027.63,1321.64 1027.61,1321.64 1027.6,1321.64C1017.73,1321.63 1008.07,1317.52 1001.12,1310.37L992.082,1301.07C978.63,1287.24 960.908,1280.32 943.184,1280.32C925.63,1280.32 908.08,1287.11 894.672,1300.69L884.624,1310.86C877.346,1318.23 867.817,1321.91 858.291,1321.91C848.697,1321.91 839.108,1318.18 831.824,1310.73L822.309,1301C808.859,1287.26 791.202,1280.38 773.542,1280.38C755.889,1280.38 738.229,1287.26 724.787,1301L715.451,1310.55C708.162,1318.01 698.571,1321.74 688.98,1321.74C679.41,1321.74 669.826,1318.01 662.532,1310.55C646.521,1294.18 625.472,1285.99 604.434,1285.99C583.398,1285.99 562.363,1294.18 546.338,1310.55C540.146,1316.89 540.118,1327.19 546.267,1333.56C549.355,1336.77 553.416,1338.37 557.475,1338.37Z" style="fill:rgb(35,69,88);fill-rule:nonzero;"/>
        <path d="M1329.98,1375.1C1316.53,1361.35 1298.88,1354.48 1281.23,1354.48C1263.57,1354.48 1245.91,1361.35 1232.47,1375.1L1223.13,1384.65C1215.83,1392.11 1206.25,1395.84 1196.67,1395.84C1187.08,1395.84 1177.5,1392.11 1170.2,1384.65L1160.86,1375.1C1147.42,1361.35 1129.77,1354.48 1112.1,1354.48C1094.45,1354.48 1076.78,1361.36 1063.35,1375.1L1054.11,1384.54C1047.15,1391.66 1037.52,1395.74 1027.65,1395.74C1027.63,1395.74 1027.61,1395.74 1027.6,1395.74C1017.73,1395.73 1008.07,1391.62 1001.12,1384.46L992.082,1375.17C978.63,1361.34 960.908,1354.41 943.184,1354.41C925.63,1354.41 908.08,1361.2 894.672,1374.79L884.624,1384.96C877.346,1392.32 867.817,1396 858.291,1396C848.692,1396 839.108,1392.28 831.824,1384.83L822.309,1375.1C808.859,1361.35 791.202,1354.48 773.542,1354.48C755.889,1354.48 738.234,1361.35 724.787,1375.1L715.451,1384.65C708.162,1392.11 698.571,1395.84 688.984,1395.84C679.41,1395.84 669.826,1392.11 662.532,1384.65C646.521,1368.28 625.472,1360.09 604.434,1360.09C583.398,1360.09 562.363,1368.28 546.338,1384.65C540.146,1390.99 540.118,1401.28 546.267,1407.66C549.355,1410.86 553.416,1412.46 557.475,1412.46C561.513,1412.46 565.553,1410.89 568.639,1407.73C578.512,1397.64 591.47,1392.6 604.434,1392.6C617.407,1392.6 630.367,1397.64 640.241,1407.73C653.69,1421.48 671.336,1428.35 688.994,1428.35C706.653,1428.35 724.313,1421.48 737.747,1407.73L747.089,1398.19C754.388,1390.72 763.974,1386.99 773.556,1386.99C783.14,1386.99 792.724,1390.72 800.018,1398.19L809.521,1407.91C822.955,1421.64 840.617,1428.51 858.297,1428.51C875.847,1428.51 893.421,1421.73 906.802,1408.15L916.853,1397.99C924.128,1390.61 933.657,1386.93 943.184,1386.93C952.81,1386.93 962.423,1390.68 969.722,1398.19L978.761,1407.48C991.78,1420.88 1009.11,1428.26 1027.56,1428.29C1027.59,1428.29 1027.62,1428.29 1027.65,1428.29C1046.07,1428.29 1063.38,1420.95 1076.41,1407.63L1085.64,1398.19C1092.94,1390.73 1102.52,1386.99 1112.1,1386.99C1121.69,1386.99 1131.27,1390.73 1138.57,1398.19L1147.91,1407.73C1161.35,1421.48 1179,1428.35 1196.65,1428.35C1214.31,1428.35 1231.97,1421.48 1245.41,1407.73L1254.76,1398.19C1262.06,1390.72 1271.64,1386.99 1281.23,1386.99C1290.8,1386.99 1300.38,1390.72 1307.68,1398.19C1310.77,1401.34 1314.81,1402.92 1318.83,1402.92C1322.9,1402.92 1326.96,1401.32 1330.04,1398.11C1336.2,1391.74 1336.18,1381.43 1329.98,1375.1Z" style="fill:rgb(35,69,88);fill-rule:nonzero;"/>
    </g>
</svg>
